<mxfile host="app.diagrams.net" modified="2020-12-07T10:22:51.084Z" agent="5.0 (X11; Linux x86_64) AppleWebKit/537.36 (KHTML, like Gecko) Chrome/87.0.4280.67 Safari/537.36" etag="TL3oYVUKaD8Kupr_bTq8" version="13.10.4" type="github">
  <diagram id="gjByRE1EfE37MnG4Hlq-" name="derived datatypes">
    <mxGraphModel dx="760" dy="429" grid="1" gridSize="10" guides="1" tooltips="1" connect="1" arrows="1" fold="1" page="1" pageScale="1" pageWidth="850" pageHeight="1100" math="0" shadow="0">
      <root>
        <mxCell id="NAqijjQ5elvdxjjpEKF7-0" />
        <mxCell id="NAqijjQ5elvdxjjpEKF7-1" parent="NAqijjQ5elvdxjjpEKF7-0" />
        <mxCell id="-HOwmCufBXUvdhxubA4n-8" value="" style="endArrow=none;html=1;strokeColor=#2D7600;fillColor=#60a917;" edge="1" parent="NAqijjQ5elvdxjjpEKF7-1">
          <mxGeometry width="50" height="50" relative="1" as="geometry">
            <mxPoint x="690" y="480.5" as="sourcePoint" />
            <mxPoint x="690" y="510.5" as="targetPoint" />
          </mxGeometry>
        </mxCell>
        <mxCell id="-HOwmCufBXUvdhxubA4n-28" value="" style="endArrow=none;html=1;strokeColor=#2D7600;fillColor=#60a917;" edge="1" parent="NAqijjQ5elvdxjjpEKF7-1">
          <mxGeometry width="50" height="50" relative="1" as="geometry">
            <mxPoint x="650" y="480.5" as="sourcePoint" />
            <mxPoint x="650" y="510.5" as="targetPoint" />
          </mxGeometry>
        </mxCell>
        <mxCell id="-HOwmCufBXUvdhxubA4n-29" value="" style="verticalLabelPosition=bottom;verticalAlign=top;html=1;shape=mxgraph.basic.diag_round_rect;dx=6;shadow=0;opacity=50;fontFamily=Helvetica;strokeColor=#666666;fontColor=#333333;fillColor=#B3B3B3;" vertex="1" parent="NAqijjQ5elvdxjjpEKF7-1">
          <mxGeometry x="610" y="480.5" width="120" height="30" as="geometry" />
        </mxCell>
        <mxCell id="-HOwmCufBXUvdhxubA4n-3" value="" style="endArrow=none;html=1;strokeColor=#2D7600;fillColor=#60a917;" edge="1" parent="NAqijjQ5elvdxjjpEKF7-1">
          <mxGeometry width="50" height="50" relative="1" as="geometry">
            <mxPoint x="530" y="480.5" as="sourcePoint" />
            <mxPoint x="530" y="510.5" as="targetPoint" />
          </mxGeometry>
        </mxCell>
        <mxCell id="-HOwmCufBXUvdhxubA4n-4" value="" style="endArrow=none;html=1;strokeColor=#2D7600;fillColor=#60a917;" edge="1" parent="NAqijjQ5elvdxjjpEKF7-1">
          <mxGeometry width="50" height="50" relative="1" as="geometry">
            <mxPoint x="489.75" y="480.5" as="sourcePoint" />
            <mxPoint x="490" y="510.5" as="targetPoint" />
          </mxGeometry>
        </mxCell>
        <mxCell id="-HOwmCufBXUvdhxubA4n-5" value="" style="endArrow=none;html=1;strokeColor=#2D7600;fillColor=#60a917;" edge="1" parent="NAqijjQ5elvdxjjpEKF7-1">
          <mxGeometry width="50" height="50" relative="1" as="geometry">
            <mxPoint x="450" y="479.7" as="sourcePoint" />
            <mxPoint x="450" y="511.5" as="targetPoint" />
          </mxGeometry>
        </mxCell>
        <mxCell id="-HOwmCufBXUvdhxubA4n-17" value="" style="verticalLabelPosition=bottom;verticalAlign=top;html=1;shape=mxgraph.basic.diag_round_rect;dx=6;shadow=0;fillColor=#f8cecc;opacity=50;fontFamily=Helvetica;strokeColor=#b85450;" vertex="1" parent="NAqijjQ5elvdxjjpEKF7-1">
          <mxGeometry x="570" y="480.5" width="40" height="30" as="geometry" />
        </mxCell>
        <mxCell id="-HOwmCufBXUvdhxubA4n-16" value="" style="verticalLabelPosition=bottom;verticalAlign=top;html=1;shape=mxgraph.basic.diag_round_rect;dx=6;shadow=0;fillColor=#ffe6cc;opacity=50;fontFamily=Helvetica;strokeColor=#d79b00;" vertex="1" parent="NAqijjQ5elvdxjjpEKF7-1">
          <mxGeometry x="410" y="480.5" width="160" height="30" as="geometry" />
        </mxCell>
        <mxCell id="Xs97He_0VqaD7Sggwqv4-59" value="" style="rounded=0;whiteSpace=wrap;html=1;strokeWidth=2;fillColor=none;" parent="NAqijjQ5elvdxjjpEKF7-1" vertex="1">
          <mxGeometry x="80" y="665" width="240" height="30" as="geometry" />
        </mxCell>
        <mxCell id="Xs97He_0VqaD7Sggwqv4-31" value="" style="verticalLabelPosition=bottom;verticalAlign=top;html=1;shape=mxgraph.basic.diag_round_rect;dx=6;shadow=0;fillColor=#d5e8d4;opacity=50;fontFamily=Helvetica;strokeColor=none;" parent="NAqijjQ5elvdxjjpEKF7-1" vertex="1">
          <mxGeometry x="290" y="870" width="60" height="30" as="geometry" />
        </mxCell>
        <mxCell id="NxpEf4nczRuJSQAmUXDb-0" value="" style="verticalLabelPosition=bottom;verticalAlign=top;html=1;shape=mxgraph.basic.diag_round_rect;dx=6;shadow=0;fillColor=#FFE6CC;opacity=50;fontFamily=Helvetica;strokeColor=none;" parent="NAqijjQ5elvdxjjpEKF7-1" vertex="1">
          <mxGeometry x="80" y="120" width="60" height="30" as="geometry" />
        </mxCell>
        <mxCell id="NxpEf4nczRuJSQAmUXDb-1" value="&lt;b&gt;Type&lt;sub&gt;3&lt;/sub&gt;&lt;/b&gt;" style="text;html=1;strokeColor=none;fillColor=none;align=center;verticalAlign=middle;whiteSpace=wrap;rounded=0;opacity=30;" parent="NAqijjQ5elvdxjjpEKF7-1" vertex="1">
          <mxGeometry x="90" y="125" width="40" height="20" as="geometry" />
        </mxCell>
        <mxCell id="NxpEf4nczRuJSQAmUXDb-2" value="&lt;font face=&quot;Courier New&quot; size=&quot;1&quot;&gt;&lt;b style=&quot;font-size: 12px&quot;&gt;MPI_PACKED&lt;/b&gt;&lt;/font&gt;" style="text;html=1;strokeColor=none;fillColor=none;align=center;verticalAlign=middle;whiteSpace=wrap;rounded=0;opacity=30;rotation=-30;" parent="NAqijjQ5elvdxjjpEKF7-1" vertex="1">
          <mxGeometry x="365" y="160" width="120" height="20" as="geometry" />
        </mxCell>
        <mxCell id="NxpEf4nczRuJSQAmUXDb-7" value="" style="verticalLabelPosition=bottom;verticalAlign=top;html=1;shape=mxgraph.basic.diag_round_rect;dx=6;shadow=0;fillColor=#dae8fc;opacity=50;fontFamily=Helvetica;strokeColor=none;" parent="NAqijjQ5elvdxjjpEKF7-1" vertex="1">
          <mxGeometry x="140" y="120" width="60" height="30" as="geometry" />
        </mxCell>
        <mxCell id="NxpEf4nczRuJSQAmUXDb-8" value="&lt;b&gt;Type&lt;sub&gt;2&lt;/sub&gt;&lt;/b&gt;" style="text;html=1;strokeColor=none;fillColor=none;align=center;verticalAlign=middle;whiteSpace=wrap;rounded=0;opacity=30;" parent="NAqijjQ5elvdxjjpEKF7-1" vertex="1">
          <mxGeometry x="150" y="125" width="40" height="20" as="geometry" />
        </mxCell>
        <mxCell id="NxpEf4nczRuJSQAmUXDb-10" value="" style="verticalLabelPosition=bottom;verticalAlign=top;html=1;shape=mxgraph.basic.diag_round_rect;dx=6;shadow=0;fillColor=#f8cecc;opacity=50;fontFamily=Helvetica;strokeColor=none;" parent="NAqijjQ5elvdxjjpEKF7-1" vertex="1">
          <mxGeometry x="200" y="120" width="60" height="30" as="geometry" />
        </mxCell>
        <mxCell id="NxpEf4nczRuJSQAmUXDb-11" value="&lt;b&gt;Type&lt;sub&gt;1&lt;/sub&gt;&lt;/b&gt;" style="text;html=1;strokeColor=none;fillColor=none;align=center;verticalAlign=middle;whiteSpace=wrap;rounded=0;opacity=30;" parent="NAqijjQ5elvdxjjpEKF7-1" vertex="1">
          <mxGeometry x="210" y="125" width="40" height="20" as="geometry" />
        </mxCell>
        <mxCell id="NxpEf4nczRuJSQAmUXDb-12" value="" style="verticalLabelPosition=bottom;verticalAlign=top;html=1;shape=mxgraph.basic.diag_round_rect;dx=6;shadow=0;fillColor=#d5e8d4;opacity=50;fontFamily=Helvetica;strokeColor=none;" parent="NAqijjQ5elvdxjjpEKF7-1" vertex="1">
          <mxGeometry x="260" y="120" width="60" height="30" as="geometry" />
        </mxCell>
        <mxCell id="NxpEf4nczRuJSQAmUXDb-13" value="&lt;b&gt;Type&lt;span style=&quot;font-size: 10px&quot;&gt;&lt;sub&gt;0&lt;/sub&gt;&lt;/span&gt;&lt;/b&gt;" style="text;html=1;strokeColor=none;fillColor=none;align=center;verticalAlign=middle;whiteSpace=wrap;rounded=0;opacity=30;" parent="NAqijjQ5elvdxjjpEKF7-1" vertex="1">
          <mxGeometry x="270" y="125" width="40" height="20" as="geometry" />
        </mxCell>
        <mxCell id="NxpEf4nczRuJSQAmUXDb-14" value="" style="rounded=0;whiteSpace=wrap;html=1;strokeWidth=2;fillColor=none;" parent="NAqijjQ5elvdxjjpEKF7-1" vertex="1">
          <mxGeometry x="80" y="120" width="240" height="30" as="geometry" />
        </mxCell>
        <mxCell id="Q3RBACHrQiSrKgZn6o-M-2" value="&lt;font face=&quot;Fira Code&quot; data-font-src=&quot;https://fonts.googleapis.com/css?family=Fira+Code&quot;&gt;&lt;b&gt;MPI_Send&lt;/b&gt;&lt;/font&gt;" style="text;html=1;strokeColor=none;fillColor=none;align=center;verticalAlign=middle;whiteSpace=wrap;rounded=0;shadow=0;fontFamily=Helvetica;opacity=50;" parent="NAqijjQ5elvdxjjpEKF7-1" vertex="1">
          <mxGeometry x="350" y="110" width="40" height="20" as="geometry" />
        </mxCell>
        <mxCell id="Q3RBACHrQiSrKgZn6o-M-3" value="&lt;font face=&quot;Fira Code&quot; data-font-src=&quot;https://fonts.googleapis.com/css?family=Fira+Code&quot;&gt;&lt;b&gt;MPI_Recv&lt;/b&gt;&lt;/font&gt;" style="text;html=1;strokeColor=none;fillColor=none;align=center;verticalAlign=middle;whiteSpace=wrap;rounded=0;shadow=0;fontFamily=Helvetica;opacity=50;" parent="NAqijjQ5elvdxjjpEKF7-1" vertex="1">
          <mxGeometry x="460" y="110" width="40" height="20" as="geometry" />
        </mxCell>
        <mxCell id="Q3RBACHrQiSrKgZn6o-M-4" value="" style="endArrow=halfCircle;html=1;strokeWidth=2;startArrow=ERmany;startFill=0;endFill=0;fillColor=#f8cecc;strokeColor=#FF6666;" parent="NAqijjQ5elvdxjjpEKF7-1" edge="1">
          <mxGeometry width="50" height="50" relative="1" as="geometry">
            <mxPoint x="320" y="130" as="sourcePoint" />
            <mxPoint x="420" y="130" as="targetPoint" />
          </mxGeometry>
        </mxCell>
        <mxCell id="Q3RBACHrQiSrKgZn6o-M-5" value="" style="endArrow=open;html=1;strokeWidth=2;startArrow=halfCircle;startFill=0;endFill=0;strokeColor=#001DBC;" parent="NAqijjQ5elvdxjjpEKF7-1" edge="1">
          <mxGeometry width="50" height="50" relative="1" as="geometry">
            <mxPoint x="419.75" y="130" as="sourcePoint" />
            <mxPoint x="530" y="130" as="targetPoint" />
          </mxGeometry>
        </mxCell>
        <mxCell id="iE9Ra6EDaUZnnQYUuiCz-23" value="" style="verticalLabelPosition=bottom;verticalAlign=top;html=1;shape=mxgraph.basic.diag_round_rect;dx=6;shadow=0;fillColor=#FFE6CC;opacity=50;fontFamily=Helvetica;strokeColor=none;" parent="NAqijjQ5elvdxjjpEKF7-1" vertex="1">
          <mxGeometry x="80" y="210" width="60" height="30" as="geometry" />
        </mxCell>
        <mxCell id="iE9Ra6EDaUZnnQYUuiCz-24" value="&lt;b&gt;Type&lt;sub&gt;3&lt;/sub&gt;&lt;/b&gt;" style="text;html=1;strokeColor=none;fillColor=none;align=center;verticalAlign=middle;whiteSpace=wrap;rounded=0;opacity=30;" parent="NAqijjQ5elvdxjjpEKF7-1" vertex="1">
          <mxGeometry x="90" y="215" width="40" height="20" as="geometry" />
        </mxCell>
        <mxCell id="iE9Ra6EDaUZnnQYUuiCz-26" value="" style="verticalLabelPosition=bottom;verticalAlign=top;html=1;shape=mxgraph.basic.diag_round_rect;dx=6;shadow=0;fillColor=#dae8fc;opacity=50;fontFamily=Helvetica;strokeColor=none;" parent="NAqijjQ5elvdxjjpEKF7-1" vertex="1">
          <mxGeometry x="140" y="30" width="60" height="30" as="geometry" />
        </mxCell>
        <mxCell id="iE9Ra6EDaUZnnQYUuiCz-27" value="&lt;b&gt;Type&lt;sub&gt;2&lt;/sub&gt;&lt;/b&gt;" style="text;html=1;strokeColor=none;fillColor=none;align=center;verticalAlign=middle;whiteSpace=wrap;rounded=0;opacity=30;" parent="NAqijjQ5elvdxjjpEKF7-1" vertex="1">
          <mxGeometry x="150" y="35" width="40" height="20" as="geometry" />
        </mxCell>
        <mxCell id="iE9Ra6EDaUZnnQYUuiCz-28" value="" style="verticalLabelPosition=bottom;verticalAlign=top;html=1;shape=mxgraph.basic.diag_round_rect;dx=6;shadow=0;fillColor=#f8cecc;opacity=50;fontFamily=Helvetica;strokeColor=none;" parent="NAqijjQ5elvdxjjpEKF7-1" vertex="1">
          <mxGeometry x="200" y="210" width="60" height="30" as="geometry" />
        </mxCell>
        <mxCell id="iE9Ra6EDaUZnnQYUuiCz-29" value="&lt;b&gt;Type&lt;sub&gt;1&lt;/sub&gt;&lt;/b&gt;" style="text;html=1;strokeColor=none;fillColor=none;align=center;verticalAlign=middle;whiteSpace=wrap;rounded=0;opacity=30;" parent="NAqijjQ5elvdxjjpEKF7-1" vertex="1">
          <mxGeometry x="210" y="215" width="40" height="20" as="geometry" />
        </mxCell>
        <mxCell id="iE9Ra6EDaUZnnQYUuiCz-30" value="" style="verticalLabelPosition=bottom;verticalAlign=top;html=1;shape=mxgraph.basic.diag_round_rect;dx=6;shadow=0;fillColor=#d5e8d4;opacity=50;fontFamily=Helvetica;strokeColor=none;" parent="NAqijjQ5elvdxjjpEKF7-1" vertex="1">
          <mxGeometry x="260" y="30" width="60" height="30" as="geometry" />
        </mxCell>
        <mxCell id="iE9Ra6EDaUZnnQYUuiCz-31" value="&lt;b&gt;Type&lt;span style=&quot;font-size: 8.33333px&quot;&gt;&lt;sub&gt;0&lt;/sub&gt;&lt;/span&gt;&lt;/b&gt;" style="text;html=1;strokeColor=none;fillColor=none;align=center;verticalAlign=middle;whiteSpace=wrap;rounded=0;opacity=30;" parent="NAqijjQ5elvdxjjpEKF7-1" vertex="1">
          <mxGeometry x="270" y="35" width="40" height="20" as="geometry" />
        </mxCell>
        <mxCell id="iE9Ra6EDaUZnnQYUuiCz-34" value="" style="endArrow=blockThin;html=1;strokeWidth=2;entryX=0.834;entryY=0.047;entryDx=0;entryDy=0;entryPerimeter=0;endFill=0;startArrow=none;startFill=0;" parent="NAqijjQ5elvdxjjpEKF7-1" edge="1">
          <mxGeometry width="50" height="50" relative="1" as="geometry">
            <mxPoint x="288.97" y="60" as="sourcePoint" />
            <mxPoint x="289.13" y="120.41000000000008" as="targetPoint" />
          </mxGeometry>
        </mxCell>
        <mxCell id="iE9Ra6EDaUZnnQYUuiCz-35" value="&lt;b&gt;&lt;font face=&quot;Courier New&quot; style=&quot;font-size: 12px&quot;&gt;MPI_Pack&lt;/font&gt;&lt;/b&gt;" style="edgeLabel;html=1;align=center;verticalAlign=middle;resizable=0;points=[];" parent="iE9Ra6EDaUZnnQYUuiCz-34" vertex="1" connectable="0">
          <mxGeometry x="-0.351" y="2" relative="1" as="geometry">
            <mxPoint as="offset" />
          </mxGeometry>
        </mxCell>
        <mxCell id="iE9Ra6EDaUZnnQYUuiCz-47" value="" style="endArrow=blockThin;html=1;strokeWidth=2;entryX=0.834;entryY=0.047;entryDx=0;entryDy=0;entryPerimeter=0;endFill=0;" parent="NAqijjQ5elvdxjjpEKF7-1" edge="1">
          <mxGeometry width="50" height="50" relative="1" as="geometry">
            <mxPoint x="170.00000000000003" y="59.59" as="sourcePoint" />
            <mxPoint x="170.16" y="120.00000000000009" as="targetPoint" />
          </mxGeometry>
        </mxCell>
        <mxCell id="iE9Ra6EDaUZnnQYUuiCz-48" value="&lt;b&gt;&lt;font face=&quot;Courier New&quot; style=&quot;font-size: 12px&quot;&gt;MPI_Pack&lt;/font&gt;&lt;/b&gt;" style="edgeLabel;html=1;align=center;verticalAlign=middle;resizable=0;points=[];" parent="iE9Ra6EDaUZnnQYUuiCz-47" vertex="1" connectable="0">
          <mxGeometry x="-0.351" y="2" relative="1" as="geometry">
            <mxPoint as="offset" />
          </mxGeometry>
        </mxCell>
        <mxCell id="iE9Ra6EDaUZnnQYUuiCz-49" value="" style="endArrow=none;html=1;strokeWidth=2;entryX=0.834;entryY=0.047;entryDx=0;entryDy=0;entryPerimeter=0;endFill=0;startArrow=blockThin;startFill=0;" parent="NAqijjQ5elvdxjjpEKF7-1" edge="1">
          <mxGeometry width="50" height="50" relative="1" as="geometry">
            <mxPoint x="108.97000000000003" y="150" as="sourcePoint" />
            <mxPoint x="109.13" y="210.41000000000008" as="targetPoint" />
          </mxGeometry>
        </mxCell>
        <mxCell id="iE9Ra6EDaUZnnQYUuiCz-50" value="&lt;b&gt;&lt;font face=&quot;Courier New&quot; style=&quot;font-size: 12px&quot;&gt;MPI_Pack&lt;/font&gt;&lt;/b&gt;" style="edgeLabel;html=1;align=center;verticalAlign=middle;resizable=0;points=[];" parent="iE9Ra6EDaUZnnQYUuiCz-49" vertex="1" connectable="0">
          <mxGeometry x="-0.351" y="2" relative="1" as="geometry">
            <mxPoint as="offset" />
          </mxGeometry>
        </mxCell>
        <mxCell id="iE9Ra6EDaUZnnQYUuiCz-51" value="" style="endArrow=none;html=1;strokeWidth=2;entryX=0.834;entryY=0.047;entryDx=0;entryDy=0;entryPerimeter=0;endFill=0;startArrow=blockThin;startFill=0;" parent="NAqijjQ5elvdxjjpEKF7-1" edge="1">
          <mxGeometry width="50" height="50" relative="1" as="geometry">
            <mxPoint x="229.50000000000003" y="150" as="sourcePoint" />
            <mxPoint x="229.66" y="210.41000000000008" as="targetPoint" />
          </mxGeometry>
        </mxCell>
        <mxCell id="iE9Ra6EDaUZnnQYUuiCz-52" value="&lt;b&gt;&lt;font face=&quot;Courier New&quot; style=&quot;font-size: 12px&quot;&gt;MPI_Pack&lt;/font&gt;&lt;/b&gt;" style="edgeLabel;html=1;align=center;verticalAlign=middle;resizable=0;points=[];" parent="iE9Ra6EDaUZnnQYUuiCz-51" vertex="1" connectable="0">
          <mxGeometry x="-0.351" y="2" relative="1" as="geometry">
            <mxPoint as="offset" />
          </mxGeometry>
        </mxCell>
        <mxCell id="iE9Ra6EDaUZnnQYUuiCz-53" value="" style="verticalLabelPosition=bottom;verticalAlign=top;html=1;shape=mxgraph.basic.diag_round_rect;dx=6;shadow=0;fillColor=#FFE6CC;opacity=50;fontFamily=Helvetica;strokeColor=none;" parent="NAqijjQ5elvdxjjpEKF7-1" vertex="1">
          <mxGeometry x="530" y="120" width="60" height="30" as="geometry" />
        </mxCell>
        <mxCell id="iE9Ra6EDaUZnnQYUuiCz-54" value="&lt;b&gt;Type&lt;sub&gt;3&lt;/sub&gt;&lt;/b&gt;" style="text;html=1;strokeColor=none;fillColor=none;align=center;verticalAlign=middle;whiteSpace=wrap;rounded=0;opacity=30;" parent="NAqijjQ5elvdxjjpEKF7-1" vertex="1">
          <mxGeometry x="540" y="125" width="40" height="20" as="geometry" />
        </mxCell>
        <mxCell id="iE9Ra6EDaUZnnQYUuiCz-55" value="" style="verticalLabelPosition=bottom;verticalAlign=top;html=1;shape=mxgraph.basic.diag_round_rect;dx=6;shadow=0;fillColor=#dae8fc;opacity=50;fontFamily=Helvetica;strokeColor=none;" parent="NAqijjQ5elvdxjjpEKF7-1" vertex="1">
          <mxGeometry x="590" y="120" width="60" height="30" as="geometry" />
        </mxCell>
        <mxCell id="iE9Ra6EDaUZnnQYUuiCz-56" value="&lt;b&gt;Type&lt;sub&gt;2&lt;/sub&gt;&lt;/b&gt;" style="text;html=1;strokeColor=none;fillColor=none;align=center;verticalAlign=middle;whiteSpace=wrap;rounded=0;opacity=30;" parent="NAqijjQ5elvdxjjpEKF7-1" vertex="1">
          <mxGeometry x="600" y="125" width="40" height="20" as="geometry" />
        </mxCell>
        <mxCell id="iE9Ra6EDaUZnnQYUuiCz-57" value="" style="verticalLabelPosition=bottom;verticalAlign=top;html=1;shape=mxgraph.basic.diag_round_rect;dx=6;shadow=0;fillColor=#f8cecc;opacity=50;fontFamily=Helvetica;strokeColor=none;" parent="NAqijjQ5elvdxjjpEKF7-1" vertex="1">
          <mxGeometry x="650" y="120" width="60" height="30" as="geometry" />
        </mxCell>
        <mxCell id="iE9Ra6EDaUZnnQYUuiCz-58" value="&lt;b&gt;Type&lt;sub&gt;1&lt;/sub&gt;&lt;/b&gt;" style="text;html=1;strokeColor=none;fillColor=none;align=center;verticalAlign=middle;whiteSpace=wrap;rounded=0;opacity=30;" parent="NAqijjQ5elvdxjjpEKF7-1" vertex="1">
          <mxGeometry x="660" y="125" width="40" height="20" as="geometry" />
        </mxCell>
        <mxCell id="iE9Ra6EDaUZnnQYUuiCz-59" value="" style="verticalLabelPosition=bottom;verticalAlign=top;html=1;shape=mxgraph.basic.diag_round_rect;dx=6;shadow=0;fillColor=#d5e8d4;opacity=50;fontFamily=Helvetica;strokeColor=none;" parent="NAqijjQ5elvdxjjpEKF7-1" vertex="1">
          <mxGeometry x="710" y="120" width="60" height="30" as="geometry" />
        </mxCell>
        <mxCell id="iE9Ra6EDaUZnnQYUuiCz-60" value="&lt;b&gt;Type&lt;span style=&quot;font-size: 10px&quot;&gt;&lt;sub&gt;0&lt;/sub&gt;&lt;/span&gt;&lt;/b&gt;" style="text;html=1;strokeColor=none;fillColor=none;align=center;verticalAlign=middle;whiteSpace=wrap;rounded=0;opacity=30;" parent="NAqijjQ5elvdxjjpEKF7-1" vertex="1">
          <mxGeometry x="720" y="125" width="40" height="20" as="geometry" />
        </mxCell>
        <mxCell id="iE9Ra6EDaUZnnQYUuiCz-61" value="" style="rounded=0;whiteSpace=wrap;html=1;strokeWidth=2;fillColor=none;" parent="NAqijjQ5elvdxjjpEKF7-1" vertex="1">
          <mxGeometry x="530" y="120" width="240" height="30" as="geometry" />
        </mxCell>
        <mxCell id="iE9Ra6EDaUZnnQYUuiCz-62" value="" style="verticalLabelPosition=bottom;verticalAlign=top;html=1;shape=mxgraph.basic.diag_round_rect;dx=6;shadow=0;fillColor=#FFE6CC;opacity=50;fontFamily=Helvetica;strokeColor=none;" parent="NAqijjQ5elvdxjjpEKF7-1" vertex="1">
          <mxGeometry x="530" y="210" width="60" height="30" as="geometry" />
        </mxCell>
        <mxCell id="iE9Ra6EDaUZnnQYUuiCz-63" value="&lt;b&gt;Type&lt;sub&gt;3&lt;/sub&gt;&lt;/b&gt;" style="text;html=1;strokeColor=none;fillColor=none;align=center;verticalAlign=middle;whiteSpace=wrap;rounded=0;opacity=30;" parent="NAqijjQ5elvdxjjpEKF7-1" vertex="1">
          <mxGeometry x="540" y="215" width="40" height="20" as="geometry" />
        </mxCell>
        <mxCell id="iE9Ra6EDaUZnnQYUuiCz-64" value="" style="verticalLabelPosition=bottom;verticalAlign=top;html=1;shape=mxgraph.basic.diag_round_rect;dx=6;shadow=0;fillColor=#dae8fc;opacity=50;fontFamily=Helvetica;strokeColor=none;" parent="NAqijjQ5elvdxjjpEKF7-1" vertex="1">
          <mxGeometry x="590" y="30" width="60" height="30" as="geometry" />
        </mxCell>
        <mxCell id="iE9Ra6EDaUZnnQYUuiCz-65" value="&lt;b&gt;Type&lt;sub&gt;2&lt;/sub&gt;&lt;/b&gt;" style="text;html=1;strokeColor=none;fillColor=none;align=center;verticalAlign=middle;whiteSpace=wrap;rounded=0;opacity=30;" parent="NAqijjQ5elvdxjjpEKF7-1" vertex="1">
          <mxGeometry x="600" y="35" width="40" height="20" as="geometry" />
        </mxCell>
        <mxCell id="iE9Ra6EDaUZnnQYUuiCz-66" value="" style="verticalLabelPosition=bottom;verticalAlign=top;html=1;shape=mxgraph.basic.diag_round_rect;dx=6;shadow=0;fillColor=#f8cecc;opacity=50;fontFamily=Helvetica;strokeColor=none;" parent="NAqijjQ5elvdxjjpEKF7-1" vertex="1">
          <mxGeometry x="650" y="210" width="60" height="30" as="geometry" />
        </mxCell>
        <mxCell id="iE9Ra6EDaUZnnQYUuiCz-67" value="&lt;b&gt;Type&lt;sub&gt;1&lt;/sub&gt;&lt;/b&gt;" style="text;html=1;strokeColor=none;fillColor=none;align=center;verticalAlign=middle;whiteSpace=wrap;rounded=0;opacity=30;" parent="NAqijjQ5elvdxjjpEKF7-1" vertex="1">
          <mxGeometry x="660" y="215" width="40" height="20" as="geometry" />
        </mxCell>
        <mxCell id="iE9Ra6EDaUZnnQYUuiCz-68" value="" style="verticalLabelPosition=bottom;verticalAlign=top;html=1;shape=mxgraph.basic.diag_round_rect;dx=6;shadow=0;fillColor=#d5e8d4;opacity=50;fontFamily=Helvetica;strokeColor=none;" parent="NAqijjQ5elvdxjjpEKF7-1" vertex="1">
          <mxGeometry x="710" y="30" width="60" height="30" as="geometry" />
        </mxCell>
        <mxCell id="iE9Ra6EDaUZnnQYUuiCz-69" value="&lt;b&gt;Type&lt;span style=&quot;font-size: 8.33333px&quot;&gt;&lt;sub&gt;0&lt;/sub&gt;&lt;/span&gt;&lt;/b&gt;" style="text;html=1;strokeColor=none;fillColor=none;align=center;verticalAlign=middle;whiteSpace=wrap;rounded=0;opacity=30;" parent="NAqijjQ5elvdxjjpEKF7-1" vertex="1">
          <mxGeometry x="720" y="35" width="40" height="20" as="geometry" />
        </mxCell>
        <mxCell id="iE9Ra6EDaUZnnQYUuiCz-70" value="" style="endArrow=none;html=1;strokeWidth=2;entryX=0.834;entryY=0.047;entryDx=0;entryDy=0;entryPerimeter=0;endFill=0;startArrow=blockThin;startFill=0;" parent="NAqijjQ5elvdxjjpEKF7-1" edge="1">
          <mxGeometry width="50" height="50" relative="1" as="geometry">
            <mxPoint x="738.97" y="60" as="sourcePoint" />
            <mxPoint x="739.13" y="120.41000000000008" as="targetPoint" />
          </mxGeometry>
        </mxCell>
        <mxCell id="iE9Ra6EDaUZnnQYUuiCz-71" value="&lt;b&gt;&lt;font face=&quot;Courier New&quot; style=&quot;font-size: 12px&quot;&gt;MPI_Unpack&lt;/font&gt;&lt;/b&gt;" style="edgeLabel;html=1;align=center;verticalAlign=middle;resizable=0;points=[];" parent="iE9Ra6EDaUZnnQYUuiCz-70" vertex="1" connectable="0">
          <mxGeometry x="-0.351" y="2" relative="1" as="geometry">
            <mxPoint as="offset" />
          </mxGeometry>
        </mxCell>
        <mxCell id="iE9Ra6EDaUZnnQYUuiCz-72" value="" style="endArrow=none;html=1;strokeWidth=2;entryX=0.834;entryY=0.047;entryDx=0;entryDy=0;entryPerimeter=0;endFill=0;startArrow=blockThin;startFill=0;" parent="NAqijjQ5elvdxjjpEKF7-1" edge="1">
          <mxGeometry width="50" height="50" relative="1" as="geometry">
            <mxPoint x="620" y="59.59000000000003" as="sourcePoint" />
            <mxPoint x="620.16" y="120" as="targetPoint" />
          </mxGeometry>
        </mxCell>
        <mxCell id="iE9Ra6EDaUZnnQYUuiCz-73" value="&lt;b&gt;&lt;font face=&quot;Courier New&quot; style=&quot;font-size: 12px&quot;&gt;MPI_Unpack&lt;/font&gt;&lt;/b&gt;" style="edgeLabel;html=1;align=center;verticalAlign=middle;resizable=0;points=[];" parent="iE9Ra6EDaUZnnQYUuiCz-72" vertex="1" connectable="0">
          <mxGeometry x="-0.351" y="2" relative="1" as="geometry">
            <mxPoint as="offset" />
          </mxGeometry>
        </mxCell>
        <mxCell id="iE9Ra6EDaUZnnQYUuiCz-74" value="" style="endArrow=blockThin;html=1;strokeWidth=2;entryX=0.834;entryY=0.047;entryDx=0;entryDy=0;entryPerimeter=0;endFill=0;startArrow=none;startFill=0;" parent="NAqijjQ5elvdxjjpEKF7-1" edge="1">
          <mxGeometry width="50" height="50" relative="1" as="geometry">
            <mxPoint x="558.97" y="150" as="sourcePoint" />
            <mxPoint x="559.13" y="210.41000000000008" as="targetPoint" />
          </mxGeometry>
        </mxCell>
        <mxCell id="iE9Ra6EDaUZnnQYUuiCz-75" value="&lt;b&gt;&lt;font face=&quot;Courier New&quot; style=&quot;font-size: 12px&quot;&gt;MPI_Unpack&lt;/font&gt;&lt;/b&gt;" style="edgeLabel;html=1;align=center;verticalAlign=middle;resizable=0;points=[];" parent="iE9Ra6EDaUZnnQYUuiCz-74" vertex="1" connectable="0">
          <mxGeometry x="-0.351" y="2" relative="1" as="geometry">
            <mxPoint as="offset" />
          </mxGeometry>
        </mxCell>
        <mxCell id="iE9Ra6EDaUZnnQYUuiCz-76" value="" style="endArrow=blockThin;html=1;strokeWidth=2;entryX=0.834;entryY=0.047;entryDx=0;entryDy=0;entryPerimeter=0;endFill=0;startArrow=none;startFill=0;" parent="NAqijjQ5elvdxjjpEKF7-1" edge="1">
          <mxGeometry width="50" height="50" relative="1" as="geometry">
            <mxPoint x="679.5" y="150" as="sourcePoint" />
            <mxPoint x="679.66" y="210.41000000000008" as="targetPoint" />
          </mxGeometry>
        </mxCell>
        <mxCell id="iE9Ra6EDaUZnnQYUuiCz-77" value="&lt;b&gt;&lt;font face=&quot;Courier New&quot; style=&quot;font-size: 12px&quot;&gt;MPI_Unpack&lt;/font&gt;&lt;/b&gt;" style="edgeLabel;html=1;align=center;verticalAlign=middle;resizable=0;points=[];" parent="iE9Ra6EDaUZnnQYUuiCz-76" vertex="1" connectable="0">
          <mxGeometry x="-0.351" y="2" relative="1" as="geometry">
            <mxPoint as="offset" />
          </mxGeometry>
        </mxCell>
        <mxCell id="Xs97He_0VqaD7Sggwqv4-1" value="&lt;b&gt;&lt;font color=&quot;#67ab9f&quot; style=&quot;font-size: 14px&quot;&gt;Construct&lt;/font&gt;&lt;/b&gt;" style="text;html=1;align=center;verticalAlign=middle;whiteSpace=wrap;rounded=0;rotation=-30;" parent="NAqijjQ5elvdxjjpEKF7-1" vertex="1">
          <mxGeometry x="130" y="340" width="70" height="20" as="geometry" />
        </mxCell>
        <mxCell id="Xs97He_0VqaD7Sggwqv4-2" value="&lt;b&gt;&lt;font color=&quot;#67ab9f&quot; style=&quot;font-size: 14px&quot;&gt;Publish&lt;/font&gt;&lt;/b&gt;" style="text;html=1;align=center;verticalAlign=middle;whiteSpace=wrap;rounded=0;rotation=-30;" parent="NAqijjQ5elvdxjjpEKF7-1" vertex="1">
          <mxGeometry x="310" y="270" width="70" height="20" as="geometry" />
        </mxCell>
        <mxCell id="Xs97He_0VqaD7Sggwqv4-4" value="&lt;b&gt;&lt;font color=&quot;#67ab9f&quot; style=&quot;font-size: 14px&quot;&gt;Use&lt;/font&gt;&lt;/b&gt;" style="text;html=1;align=center;verticalAlign=middle;whiteSpace=wrap;rounded=0;rotation=-30;" parent="NAqijjQ5elvdxjjpEKF7-1" vertex="1">
          <mxGeometry x="440" y="340" width="45" height="20" as="geometry" />
        </mxCell>
        <mxCell id="Xs97He_0VqaD7Sggwqv4-5" value="&lt;b&gt;&lt;font color=&quot;#67ab9f&quot; style=&quot;font-size: 14px&quot;&gt;Free&lt;/font&gt;&lt;/b&gt;" style="text;html=1;align=center;verticalAlign=middle;whiteSpace=wrap;rounded=0;rotation=-30;" parent="NAqijjQ5elvdxjjpEKF7-1" vertex="1">
          <mxGeometry x="590" y="270" width="40" height="20" as="geometry" />
        </mxCell>
        <mxCell id="Xs97He_0VqaD7Sggwqv4-9" value="" style="edgeStyle=orthogonalEdgeStyle;rounded=0;orthogonalLoop=1;jettySize=auto;html=1;startArrow=none;startFill=0;endArrow=classicThin;endFill=1;strokeColor=#b85450;strokeWidth=1;fillColor=#f8cecc;" parent="NAqijjQ5elvdxjjpEKF7-1" source="Xs97He_0VqaD7Sggwqv4-6" target="Xs97He_0VqaD7Sggwqv4-8" edge="1">
          <mxGeometry relative="1" as="geometry" />
        </mxCell>
        <mxCell id="Xs97He_0VqaD7Sggwqv4-6" value="&lt;font face=&quot;Courier New&quot;&gt;&lt;b&gt;MPI_Type_*&lt;/b&gt;&lt;/font&gt;" style="text;html=1;strokeColor=none;fillColor=none;align=center;verticalAlign=middle;whiteSpace=wrap;rounded=0;" parent="NAqijjQ5elvdxjjpEKF7-1" vertex="1">
          <mxGeometry x="140" y="300" width="90" height="20" as="geometry" />
        </mxCell>
        <mxCell id="Xs97He_0VqaD7Sggwqv4-8" value="&lt;font face=&quot;Courier New&quot;&gt;&lt;b&gt;MPI_Type_commit&lt;/b&gt;&lt;/font&gt;" style="text;html=1;strokeColor=none;fillColor=none;align=center;verticalAlign=middle;whiteSpace=wrap;rounded=0;" parent="NAqijjQ5elvdxjjpEKF7-1" vertex="1">
          <mxGeometry x="270" y="300" width="120" height="20" as="geometry" />
        </mxCell>
        <mxCell id="Xs97He_0VqaD7Sggwqv4-10" value="&lt;font face=&quot;Courier New&quot;&gt;&lt;b&gt;MPI_Send&lt;/b&gt;&lt;/font&gt;" style="text;html=1;strokeColor=none;fillColor=none;align=center;verticalAlign=middle;whiteSpace=wrap;rounded=0;" parent="NAqijjQ5elvdxjjpEKF7-1" vertex="1">
          <mxGeometry x="410" y="290" width="120" height="20" as="geometry" />
        </mxCell>
        <mxCell id="Xs97He_0VqaD7Sggwqv4-11" value="&lt;font face=&quot;Courier New&quot;&gt;&lt;b&gt;MPI_Recv&lt;/b&gt;&lt;/font&gt;" style="text;html=1;strokeColor=none;fillColor=none;align=center;verticalAlign=middle;whiteSpace=wrap;rounded=0;" parent="NAqijjQ5elvdxjjpEKF7-1" vertex="1">
          <mxGeometry x="410" y="310" width="120" height="20" as="geometry" />
        </mxCell>
        <mxCell id="Xs97He_0VqaD7Sggwqv4-12" value="&lt;font face=&quot;Courier New&quot;&gt;&lt;b&gt;MPI_Type_free&lt;/b&gt;&lt;/font&gt;" style="text;html=1;strokeColor=none;fillColor=none;align=center;verticalAlign=middle;whiteSpace=wrap;rounded=0;" parent="NAqijjQ5elvdxjjpEKF7-1" vertex="1">
          <mxGeometry x="550" y="300" width="120" height="20" as="geometry" />
        </mxCell>
        <mxCell id="Xs97He_0VqaD7Sggwqv4-13" value="" style="edgeStyle=orthogonalEdgeStyle;rounded=0;orthogonalLoop=1;jettySize=auto;html=1;startArrow=none;startFill=0;endArrow=classicThin;endFill=1;strokeColor=#b85450;strokeWidth=1;fillColor=#f8cecc;" parent="NAqijjQ5elvdxjjpEKF7-1" edge="1">
          <mxGeometry relative="1" as="geometry">
            <mxPoint x="390" y="310" as="sourcePoint" />
            <mxPoint x="430" y="310" as="targetPoint" />
          </mxGeometry>
        </mxCell>
        <mxCell id="Xs97He_0VqaD7Sggwqv4-14" value="" style="edgeStyle=orthogonalEdgeStyle;rounded=0;orthogonalLoop=1;jettySize=auto;html=1;startArrow=none;startFill=0;endArrow=classicThin;endFill=1;strokeColor=#b85450;strokeWidth=1;fillColor=#f8cecc;" parent="NAqijjQ5elvdxjjpEKF7-1" edge="1">
          <mxGeometry relative="1" as="geometry">
            <mxPoint x="510" y="310" as="sourcePoint" />
            <mxPoint x="550" y="310" as="targetPoint" />
          </mxGeometry>
        </mxCell>
        <mxCell id="Xs97He_0VqaD7Sggwqv4-22" value="" style="verticalLabelPosition=bottom;verticalAlign=top;html=1;shape=mxgraph.basic.diag_round_rect;dx=6;shadow=0;fillColor=#d5e8d4;opacity=50;fontFamily=Helvetica;strokeColor=none;" parent="NAqijjQ5elvdxjjpEKF7-1" vertex="1">
          <mxGeometry x="477.5" y="825" width="60" height="30" as="geometry" />
        </mxCell>
        <mxCell id="Xs97He_0VqaD7Sggwqv4-23" value="&lt;b&gt;&lt;font face=&quot;Courier New&quot;&gt;inbuf&lt;/font&gt;&lt;/b&gt;" style="text;html=1;strokeColor=none;fillColor=none;align=center;verticalAlign=middle;whiteSpace=wrap;rounded=0;opacity=30;" parent="NAqijjQ5elvdxjjpEKF7-1" vertex="1">
          <mxGeometry x="487.5" y="830" width="40" height="20" as="geometry" />
        </mxCell>
        <mxCell id="Xs97He_0VqaD7Sggwqv4-32" value="&lt;b&gt;&lt;font face=&quot;Courier New&quot;&gt;inbuf&lt;/font&gt;&lt;/b&gt;" style="text;html=1;strokeColor=none;fillColor=none;align=center;verticalAlign=middle;whiteSpace=wrap;rounded=0;opacity=30;" parent="NAqijjQ5elvdxjjpEKF7-1" vertex="1">
          <mxGeometry x="300" y="875" width="40" height="20" as="geometry" />
        </mxCell>
        <mxCell id="Xs97He_0VqaD7Sggwqv4-41" value="&lt;font face=&quot;Courier New&quot;&gt;&lt;b&gt;outbuf&lt;/b&gt;&lt;/font&gt;" style="text;html=1;strokeColor=none;fillColor=none;align=center;verticalAlign=middle;whiteSpace=wrap;rounded=0;" parent="NAqijjQ5elvdxjjpEKF7-1" vertex="1">
          <mxGeometry x="407.5" y="805" width="45" height="20" as="geometry" />
        </mxCell>
        <mxCell id="Xs97He_0VqaD7Sggwqv4-42" value="&lt;font face=&quot;Courier New&quot;&gt;&lt;b&gt;*position&lt;/b&gt;&lt;/font&gt;" style="text;html=1;strokeColor=none;fillColor=none;align=center;verticalAlign=middle;whiteSpace=wrap;rounded=0;" parent="NAqijjQ5elvdxjjpEKF7-1" vertex="1">
          <mxGeometry x="477.5" y="855" width="70" height="20" as="geometry" />
        </mxCell>
        <mxCell id="Xs97He_0VqaD7Sggwqv4-43" value="&lt;font face=&quot;Courier New&quot;&gt;&lt;b&gt;outbuf + *position&lt;/b&gt;&lt;/font&gt;" style="text;html=1;strokeColor=none;fillColor=none;align=center;verticalAlign=middle;whiteSpace=wrap;rounded=0;" parent="NAqijjQ5elvdxjjpEKF7-1" vertex="1">
          <mxGeometry x="532.5" y="805" width="145" height="20" as="geometry" />
        </mxCell>
        <mxCell id="Xs97He_0VqaD7Sggwqv4-45" value="" style="endArrow=diamond;html=1;strokeColor=#000000;strokeWidth=2;endFill=1;exitX=0;exitY=1;exitDx=0;exitDy=0;entryX=0;entryY=0.75;entryDx=0;entryDy=0;" parent="NAqijjQ5elvdxjjpEKF7-1" source="Xs97He_0VqaD7Sggwqv4-24" target="Xs97He_0VqaD7Sggwqv4-41" edge="1">
          <mxGeometry width="50" height="50" relative="1" as="geometry">
            <mxPoint x="407.5" y="800" as="sourcePoint" />
            <mxPoint x="407.5" y="830" as="targetPoint" />
          </mxGeometry>
        </mxCell>
        <mxCell id="Xs97He_0VqaD7Sggwqv4-47" value="" style="endArrow=diamond;html=1;strokeColor=#000000;strokeWidth=2;endFill=1;entryX=0.377;entryY=-0.127;entryDx=0;entryDy=0;entryPerimeter=0;" parent="NAqijjQ5elvdxjjpEKF7-1" edge="1">
          <mxGeometry width="50" height="50" relative="1" as="geometry">
            <mxPoint x="537.5" y="855" as="sourcePoint" />
            <mxPoint x="537.98" y="821.19" as="targetPoint" />
          </mxGeometry>
        </mxCell>
        <mxCell id="Xs97He_0VqaD7Sggwqv4-48" value="" style="verticalLabelPosition=bottom;verticalAlign=top;html=1;shape=mxgraph.basic.diag_round_rect;dx=6;shadow=0;fillColor=#f8cecc;opacity=50;fontFamily=Helvetica;strokeColor=none;" parent="NAqijjQ5elvdxjjpEKF7-1" vertex="1">
          <mxGeometry x="407.5" y="825" width="70" height="30" as="geometry" />
        </mxCell>
        <mxCell id="Xs97He_0VqaD7Sggwqv4-33" value="" style="endArrow=blockThin;html=1;strokeWidth=2;endFill=0;startArrow=none;startFill=0;" parent="NAqijjQ5elvdxjjpEKF7-1" edge="1" source="-HOwmCufBXUvdhxubA4n-80">
          <mxGeometry width="50" height="50" relative="1" as="geometry">
            <mxPoint x="310" y="839.75" as="sourcePoint" />
            <mxPoint x="407.5" y="839.75" as="targetPoint" />
          </mxGeometry>
        </mxCell>
        <mxCell id="Xs97He_0VqaD7Sggwqv4-49" value="" style="verticalLabelPosition=bottom;verticalAlign=top;html=1;shape=mxgraph.basic.diag_round_rect;dx=6;shadow=0;fillColor=#d5e8d4;opacity=50;fontFamily=Helvetica;strokeColor=none;" parent="NAqijjQ5elvdxjjpEKF7-1" vertex="1">
          <mxGeometry x="120" y="570" width="60" height="30" as="geometry" />
        </mxCell>
        <mxCell id="Xs97He_0VqaD7Sggwqv4-50" value="" style="verticalLabelPosition=bottom;verticalAlign=top;html=1;shape=mxgraph.basic.diag_round_rect;dx=6;shadow=0;fillColor=#d5e8d4;opacity=50;fontFamily=Helvetica;strokeColor=none;" parent="NAqijjQ5elvdxjjpEKF7-1" vertex="1">
          <mxGeometry x="150" y="665" width="60" height="30" as="geometry" />
        </mxCell>
        <mxCell id="Xs97He_0VqaD7Sggwqv4-51" value="&lt;b&gt;&lt;font face=&quot;Courier New&quot;&gt;inbuf&lt;/font&gt;&lt;/b&gt;" style="text;html=1;strokeColor=none;fillColor=none;align=center;verticalAlign=middle;whiteSpace=wrap;rounded=0;opacity=30;" parent="NAqijjQ5elvdxjjpEKF7-1" vertex="1">
          <mxGeometry x="160" y="670" width="40" height="20" as="geometry" />
        </mxCell>
        <mxCell id="Xs97He_0VqaD7Sggwqv4-52" value="&lt;b&gt;&lt;font face=&quot;Courier New&quot;&gt;outbuf&lt;/font&gt;&lt;/b&gt;" style="text;html=1;strokeColor=none;fillColor=none;align=center;verticalAlign=middle;whiteSpace=wrap;rounded=0;opacity=30;" parent="NAqijjQ5elvdxjjpEKF7-1" vertex="1">
          <mxGeometry x="130" y="575" width="40" height="20" as="geometry" />
        </mxCell>
        <mxCell id="Xs97He_0VqaD7Sggwqv4-53" value="&lt;font face=&quot;Courier New&quot;&gt;&lt;b&gt;inbuf&lt;/b&gt;&lt;/font&gt;" style="text;html=1;strokeColor=none;fillColor=none;align=center;verticalAlign=middle;whiteSpace=wrap;rounded=0;" parent="NAqijjQ5elvdxjjpEKF7-1" vertex="1">
          <mxGeometry x="35" y="645" width="45" height="20" as="geometry" />
        </mxCell>
        <mxCell id="Xs97He_0VqaD7Sggwqv4-54" value="&lt;font face=&quot;Courier New&quot;&gt;&lt;b&gt;*position&lt;/b&gt;&lt;/font&gt;" style="text;html=1;strokeColor=none;fillColor=none;align=center;verticalAlign=middle;whiteSpace=wrap;rounded=0;" parent="NAqijjQ5elvdxjjpEKF7-1" vertex="1">
          <mxGeometry x="150" y="695" width="70" height="20" as="geometry" />
        </mxCell>
        <mxCell id="Xs97He_0VqaD7Sggwqv4-55" value="&lt;font face=&quot;Courier New&quot;&gt;&lt;b&gt;inbuf + *position&lt;/b&gt;&lt;/font&gt;" style="text;html=1;strokeColor=none;fillColor=none;align=center;verticalAlign=middle;whiteSpace=wrap;rounded=0;" parent="NAqijjQ5elvdxjjpEKF7-1" vertex="1">
          <mxGeometry x="205" y="645" width="145" height="20" as="geometry" />
        </mxCell>
        <mxCell id="Xs97He_0VqaD7Sggwqv4-56" value="" style="endArrow=diamond;html=1;strokeColor=#000000;strokeWidth=2;endFill=1;exitX=0;exitY=1;exitDx=0;exitDy=0;entryX=1;entryY=0.75;entryDx=0;entryDy=0;" parent="NAqijjQ5elvdxjjpEKF7-1" source="Xs97He_0VqaD7Sggwqv4-59" target="Xs97He_0VqaD7Sggwqv4-53" edge="1">
          <mxGeometry width="50" height="50" relative="1" as="geometry">
            <mxPoint x="80" y="640" as="sourcePoint" />
            <mxPoint x="80" y="670" as="targetPoint" />
          </mxGeometry>
        </mxCell>
        <mxCell id="Xs97He_0VqaD7Sggwqv4-57" value="" style="endArrow=diamond;html=1;strokeColor=#000000;strokeWidth=2;endFill=1;entryX=0.377;entryY=-0.127;entryDx=0;entryDy=0;entryPerimeter=0;" parent="NAqijjQ5elvdxjjpEKF7-1" edge="1">
          <mxGeometry width="50" height="50" relative="1" as="geometry">
            <mxPoint x="210" y="695" as="sourcePoint" />
            <mxPoint x="210.48000000000002" y="661.19" as="targetPoint" />
          </mxGeometry>
        </mxCell>
        <mxCell id="Xs97He_0VqaD7Sggwqv4-60" value="" style="endArrow=none;html=1;strokeWidth=2;endFill=0;startArrow=diamond;startFill=1;entryX=0;entryY=1;entryDx=0;entryDy=0;entryPerimeter=0;" parent="NAqijjQ5elvdxjjpEKF7-1" target="Xs97He_0VqaD7Sggwqv4-50" edge="1">
          <mxGeometry width="50" height="50" relative="1" as="geometry">
            <mxPoint x="148.97000000000003" y="600" as="sourcePoint" />
            <mxPoint x="150" y="680" as="targetPoint" />
          </mxGeometry>
        </mxCell>
        <mxCell id="Xs97He_0VqaD7Sggwqv4-61" value="&lt;b&gt;&lt;font face=&quot;Courier New&quot; style=&quot;font-size: 12px&quot;&gt;MPI_Unpack&lt;/font&gt;&lt;/b&gt;" style="edgeLabel;html=1;align=center;verticalAlign=middle;resizable=0;points=[];" parent="Xs97He_0VqaD7Sggwqv4-60" vertex="1" connectable="0">
          <mxGeometry x="-0.351" y="2" relative="1" as="geometry">
            <mxPoint as="offset" />
          </mxGeometry>
        </mxCell>
        <mxCell id="-HOwmCufBXUvdhxubA4n-1" value="&lt;b&gt;2&lt;sup&gt;n&lt;/sup&gt;-1&lt;/b&gt;" style="text;html=1;strokeColor=none;fillColor=none;align=center;verticalAlign=middle;whiteSpace=wrap;rounded=0;" vertex="1" parent="NAqijjQ5elvdxjjpEKF7-1">
          <mxGeometry x="410" y="510.5" width="30" height="20" as="geometry" />
        </mxCell>
        <mxCell id="-HOwmCufBXUvdhxubA4n-2" value="" style="endArrow=none;html=1;entryX=0.5;entryY=1;entryDx=0;entryDy=0;strokeColor=#FF3333;" edge="1" parent="NAqijjQ5elvdxjjpEKF7-1">
          <mxGeometry width="50" height="50" relative="1" as="geometry">
            <mxPoint x="570" y="480" as="sourcePoint" />
            <mxPoint x="570" y="510.5" as="targetPoint" />
          </mxGeometry>
        </mxCell>
        <mxCell id="-HOwmCufBXUvdhxubA4n-6" value="" style="endArrow=none;html=1;strokeColor=#2D7600;fillColor=#60a917;" edge="1" parent="NAqijjQ5elvdxjjpEKF7-1">
          <mxGeometry width="50" height="50" relative="1" as="geometry">
            <mxPoint x="609.75" y="480.5" as="sourcePoint" />
            <mxPoint x="610" y="510.5" as="targetPoint" />
          </mxGeometry>
        </mxCell>
        <mxCell id="-HOwmCufBXUvdhxubA4n-13" value="&lt;b&gt;2&lt;sup&gt;n+1&lt;/sup&gt;-1&lt;/b&gt;" style="text;html=1;strokeColor=none;fillColor=none;align=center;verticalAlign=middle;whiteSpace=wrap;rounded=0;" vertex="1" parent="NAqijjQ5elvdxjjpEKF7-1">
          <mxGeometry x="570" y="510.5" width="40" height="20" as="geometry" />
        </mxCell>
        <mxCell id="-HOwmCufBXUvdhxubA4n-14" value="" style="endArrow=none;html=1;entryX=0.5;entryY=1;entryDx=0;entryDy=0;strokeColor=#FF3333;" edge="1" parent="NAqijjQ5elvdxjjpEKF7-1">
          <mxGeometry width="50" height="50" relative="1" as="geometry">
            <mxPoint x="410" y="479.5" as="sourcePoint" />
            <mxPoint x="410" y="510.5" as="targetPoint" />
          </mxGeometry>
        </mxCell>
        <mxCell id="-HOwmCufBXUvdhxubA4n-18" value="&lt;font face=&quot;Courier New&quot;&gt;&lt;b&gt;int&lt;/b&gt;&lt;/font&gt;" style="text;html=1;strokeColor=none;fillColor=none;align=center;verticalAlign=middle;whiteSpace=wrap;rounded=0;" vertex="1" parent="NAqijjQ5elvdxjjpEKF7-1">
          <mxGeometry x="410" y="485.5" width="40" height="20" as="geometry" />
        </mxCell>
        <mxCell id="-HOwmCufBXUvdhxubA4n-21" value="&lt;font face=&quot;Courier New&quot;&gt;&lt;b&gt;char&lt;/b&gt;&lt;/font&gt;" style="text;html=1;strokeColor=none;fillColor=none;align=center;verticalAlign=middle;whiteSpace=wrap;rounded=0;" vertex="1" parent="NAqijjQ5elvdxjjpEKF7-1">
          <mxGeometry x="570" y="485.5" width="40" height="20" as="geometry" />
        </mxCell>
        <mxCell id="-HOwmCufBXUvdhxubA4n-23" value="" style="endArrow=none;html=1;entryX=0.5;entryY=1;entryDx=0;entryDy=0;strokeColor=#FF3333;" edge="1" parent="NAqijjQ5elvdxjjpEKF7-1">
          <mxGeometry width="50" height="50" relative="1" as="geometry">
            <mxPoint x="730" y="480.5" as="sourcePoint" />
            <mxPoint x="730" y="511" as="targetPoint" />
          </mxGeometry>
        </mxCell>
        <mxCell id="-HOwmCufBXUvdhxubA4n-24" value="&lt;b&gt;2&lt;sup&gt;n+2&lt;/sup&gt;-1&lt;/b&gt;" style="text;html=1;strokeColor=none;fillColor=none;align=center;verticalAlign=middle;whiteSpace=wrap;rounded=0;" vertex="1" parent="NAqijjQ5elvdxjjpEKF7-1">
          <mxGeometry x="730" y="510.5" width="40" height="20" as="geometry" />
        </mxCell>
        <mxCell id="-HOwmCufBXUvdhxubA4n-27" value="" style="endArrow=none;html=1;strokeColor=#2D7600;fillColor=#60a917;" edge="1" parent="NAqijjQ5elvdxjjpEKF7-1">
          <mxGeometry width="50" height="50" relative="1" as="geometry">
            <mxPoint x="769.75" y="480.5" as="sourcePoint" />
            <mxPoint x="769.75" y="510.5" as="targetPoint" />
          </mxGeometry>
        </mxCell>
        <mxCell id="-HOwmCufBXUvdhxubA4n-11" value="" style="endArrow=none;html=1;strokeWidth=2;" edge="1" parent="NAqijjQ5elvdxjjpEKF7-1">
          <mxGeometry width="50" height="50" relative="1" as="geometry">
            <mxPoint x="400" y="480.5" as="sourcePoint" />
            <mxPoint x="790" y="481" as="targetPoint" />
          </mxGeometry>
        </mxCell>
        <mxCell id="-HOwmCufBXUvdhxubA4n-10" value="" style="endArrow=none;html=1;strokeWidth=2;" edge="1" parent="NAqijjQ5elvdxjjpEKF7-1">
          <mxGeometry width="50" height="50" relative="1" as="geometry">
            <mxPoint x="400" y="510.5" as="sourcePoint" />
            <mxPoint x="790" y="511" as="targetPoint" />
          </mxGeometry>
        </mxCell>
        <mxCell id="-HOwmCufBXUvdhxubA4n-31" value="&lt;b&gt;&lt;i&gt;Padding&lt;/i&gt;&lt;/b&gt;" style="text;html=1;strokeColor=none;fillColor=none;align=center;verticalAlign=middle;whiteSpace=wrap;rounded=0;" vertex="1" parent="NAqijjQ5elvdxjjpEKF7-1">
          <mxGeometry x="650" y="485.5" width="40" height="20" as="geometry" />
        </mxCell>
        <mxCell id="-HOwmCufBXUvdhxubA4n-32" value="" style="shape=curlyBracket;whiteSpace=wrap;html=1;rounded=1;fillColor=#B3B3B3;rotation=90;" vertex="1" parent="NAqijjQ5elvdxjjpEKF7-1">
          <mxGeometry x="500" y="360" width="20" height="200.5" as="geometry" />
        </mxCell>
        <mxCell id="-HOwmCufBXUvdhxubA4n-33" value="" style="shape=curlyBracket;whiteSpace=wrap;html=1;rounded=1;fillColor=#B3B3B3;rotation=-90;" vertex="1" parent="NAqijjQ5elvdxjjpEKF7-1">
          <mxGeometry x="560" y="374.75" width="20" height="320.25" as="geometry" />
        </mxCell>
        <mxCell id="-HOwmCufBXUvdhxubA4n-34" value="&lt;b&gt;SIZE[&lt;font face=&quot;Courier New&quot;&gt;Pair&lt;/font&gt;] = 5&lt;/b&gt;" style="text;html=1;strokeColor=none;fillColor=none;align=center;verticalAlign=middle;whiteSpace=wrap;rounded=0;" vertex="1" parent="NAqijjQ5elvdxjjpEKF7-1">
          <mxGeometry x="460" y="430" width="120" height="15" as="geometry" />
        </mxCell>
        <mxCell id="-HOwmCufBXUvdhxubA4n-35" value="&lt;b&gt;EXTENT[&lt;font face=&quot;Courier New&quot;&gt;Pair&lt;/font&gt;] = 8&lt;/b&gt;" style="text;html=1;strokeColor=none;fillColor=none;align=center;verticalAlign=middle;whiteSpace=wrap;rounded=0;" vertex="1" parent="NAqijjQ5elvdxjjpEKF7-1">
          <mxGeometry x="520" y="545.5" width="120" height="15" as="geometry" />
        </mxCell>
        <mxCell id="-HOwmCufBXUvdhxubA4n-37" value="" style="endArrow=none;html=1;strokeColor=#2D7600;fillColor=#60a917;" edge="1" parent="NAqijjQ5elvdxjjpEKF7-1">
          <mxGeometry width="50" height="50" relative="1" as="geometry">
            <mxPoint x="690" y="633" as="sourcePoint" />
            <mxPoint x="690" y="663" as="targetPoint" />
          </mxGeometry>
        </mxCell>
        <mxCell id="-HOwmCufBXUvdhxubA4n-38" value="" style="endArrow=none;html=1;strokeColor=#2D7600;fillColor=#60a917;" edge="1" parent="NAqijjQ5elvdxjjpEKF7-1">
          <mxGeometry width="50" height="50" relative="1" as="geometry">
            <mxPoint x="650" y="633" as="sourcePoint" />
            <mxPoint x="650" y="663" as="targetPoint" />
          </mxGeometry>
        </mxCell>
        <mxCell id="-HOwmCufBXUvdhxubA4n-40" value="" style="endArrow=none;html=1;strokeColor=#2D7600;fillColor=#60a917;" edge="1" parent="NAqijjQ5elvdxjjpEKF7-1">
          <mxGeometry width="50" height="50" relative="1" as="geometry">
            <mxPoint x="530" y="633" as="sourcePoint" />
            <mxPoint x="530" y="663" as="targetPoint" />
          </mxGeometry>
        </mxCell>
        <mxCell id="-HOwmCufBXUvdhxubA4n-41" value="" style="endArrow=none;html=1;strokeColor=#2D7600;fillColor=#60a917;" edge="1" parent="NAqijjQ5elvdxjjpEKF7-1">
          <mxGeometry width="50" height="50" relative="1" as="geometry">
            <mxPoint x="489.75" y="633" as="sourcePoint" />
            <mxPoint x="490" y="663" as="targetPoint" />
          </mxGeometry>
        </mxCell>
        <mxCell id="-HOwmCufBXUvdhxubA4n-42" value="" style="endArrow=none;html=1;strokeColor=#2D7600;fillColor=#60a917;" edge="1" parent="NAqijjQ5elvdxjjpEKF7-1">
          <mxGeometry width="50" height="50" relative="1" as="geometry">
            <mxPoint x="449.9999999999999" y="632.2" as="sourcePoint" />
            <mxPoint x="449.9999999999999" y="664" as="targetPoint" />
          </mxGeometry>
        </mxCell>
        <mxCell id="-HOwmCufBXUvdhxubA4n-43" value="" style="verticalLabelPosition=bottom;verticalAlign=top;html=1;shape=mxgraph.basic.diag_round_rect;dx=6;shadow=0;fillColor=#f8cecc;opacity=50;fontFamily=Helvetica;strokeColor=#b85450;" vertex="1" parent="NAqijjQ5elvdxjjpEKF7-1">
          <mxGeometry x="570" y="633" width="40" height="30" as="geometry" />
        </mxCell>
        <mxCell id="-HOwmCufBXUvdhxubA4n-44" value="" style="verticalLabelPosition=bottom;verticalAlign=top;html=1;shape=mxgraph.basic.diag_round_rect;dx=6;shadow=0;fillColor=#ffe6cc;opacity=50;fontFamily=Helvetica;strokeColor=#d79b00;" vertex="1" parent="NAqijjQ5elvdxjjpEKF7-1">
          <mxGeometry x="410" y="633" width="160" height="30" as="geometry" />
        </mxCell>
        <mxCell id="-HOwmCufBXUvdhxubA4n-45" value="&lt;b&gt;2&lt;sup&gt;n&lt;/sup&gt;-1&lt;/b&gt;" style="text;html=1;strokeColor=none;fillColor=none;align=center;verticalAlign=middle;whiteSpace=wrap;rounded=0;" vertex="1" parent="NAqijjQ5elvdxjjpEKF7-1">
          <mxGeometry x="410" y="663" width="30" height="20" as="geometry" />
        </mxCell>
        <mxCell id="-HOwmCufBXUvdhxubA4n-46" value="" style="endArrow=none;html=1;entryX=0.5;entryY=1;entryDx=0;entryDy=0;strokeColor=#FF3333;" edge="1" parent="NAqijjQ5elvdxjjpEKF7-1">
          <mxGeometry width="50" height="50" relative="1" as="geometry">
            <mxPoint x="570" y="632.5" as="sourcePoint" />
            <mxPoint x="570" y="663" as="targetPoint" />
          </mxGeometry>
        </mxCell>
        <mxCell id="-HOwmCufBXUvdhxubA4n-47" value="" style="endArrow=none;html=1;strokeColor=#2D7600;fillColor=#60a917;" edge="1" parent="NAqijjQ5elvdxjjpEKF7-1">
          <mxGeometry width="50" height="50" relative="1" as="geometry">
            <mxPoint x="609.75" y="633" as="sourcePoint" />
            <mxPoint x="610" y="663" as="targetPoint" />
          </mxGeometry>
        </mxCell>
        <mxCell id="-HOwmCufBXUvdhxubA4n-48" value="&lt;b&gt;2&lt;sup&gt;n+1&lt;/sup&gt;-1&lt;/b&gt;" style="text;html=1;strokeColor=none;fillColor=none;align=center;verticalAlign=middle;whiteSpace=wrap;rounded=0;" vertex="1" parent="NAqijjQ5elvdxjjpEKF7-1">
          <mxGeometry x="570" y="663" width="40" height="20" as="geometry" />
        </mxCell>
        <mxCell id="-HOwmCufBXUvdhxubA4n-49" value="" style="endArrow=none;html=1;entryX=0.5;entryY=1;entryDx=0;entryDy=0;strokeColor=#FF3333;" edge="1" parent="NAqijjQ5elvdxjjpEKF7-1">
          <mxGeometry width="50" height="50" relative="1" as="geometry">
            <mxPoint x="409.9999999999999" y="631.9999999999999" as="sourcePoint" />
            <mxPoint x="409.9999999999999" y="663" as="targetPoint" />
          </mxGeometry>
        </mxCell>
        <mxCell id="-HOwmCufBXUvdhxubA4n-50" value="&lt;font face=&quot;Courier New&quot;&gt;&lt;b&gt;int&lt;/b&gt;&lt;/font&gt;" style="text;html=1;strokeColor=none;fillColor=none;align=center;verticalAlign=middle;whiteSpace=wrap;rounded=0;" vertex="1" parent="NAqijjQ5elvdxjjpEKF7-1">
          <mxGeometry x="410" y="638" width="40" height="20" as="geometry" />
        </mxCell>
        <mxCell id="-HOwmCufBXUvdhxubA4n-51" value="&lt;font face=&quot;Courier New&quot;&gt;&lt;b&gt;char&lt;/b&gt;&lt;/font&gt;" style="text;html=1;strokeColor=none;fillColor=none;align=center;verticalAlign=middle;whiteSpace=wrap;rounded=0;" vertex="1" parent="NAqijjQ5elvdxjjpEKF7-1">
          <mxGeometry x="570" y="638" width="40" height="20" as="geometry" />
        </mxCell>
        <mxCell id="-HOwmCufBXUvdhxubA4n-52" value="" style="endArrow=none;html=1;entryX=0.5;entryY=1;entryDx=0;entryDy=0;strokeColor=#FF3333;" edge="1" parent="NAqijjQ5elvdxjjpEKF7-1">
          <mxGeometry width="50" height="50" relative="1" as="geometry">
            <mxPoint x="730" y="633" as="sourcePoint" />
            <mxPoint x="730" y="663.5" as="targetPoint" />
          </mxGeometry>
        </mxCell>
        <mxCell id="-HOwmCufBXUvdhxubA4n-53" value="&lt;b&gt;2&lt;sup&gt;n+2&lt;/sup&gt;-1&lt;/b&gt;" style="text;html=1;strokeColor=none;fillColor=none;align=center;verticalAlign=middle;whiteSpace=wrap;rounded=0;" vertex="1" parent="NAqijjQ5elvdxjjpEKF7-1">
          <mxGeometry x="730" y="663" width="40" height="20" as="geometry" />
        </mxCell>
        <mxCell id="-HOwmCufBXUvdhxubA4n-54" value="" style="endArrow=none;html=1;strokeColor=#2D7600;fillColor=#60a917;" edge="1" parent="NAqijjQ5elvdxjjpEKF7-1">
          <mxGeometry width="50" height="50" relative="1" as="geometry">
            <mxPoint x="769.75" y="633" as="sourcePoint" />
            <mxPoint x="769.75" y="663" as="targetPoint" />
          </mxGeometry>
        </mxCell>
        <mxCell id="-HOwmCufBXUvdhxubA4n-56" value="" style="endArrow=none;html=1;strokeWidth=2;" edge="1" parent="NAqijjQ5elvdxjjpEKF7-1">
          <mxGeometry width="50" height="50" relative="1" as="geometry">
            <mxPoint x="399.9999999999999" y="663" as="sourcePoint" />
            <mxPoint x="790" y="663.5" as="targetPoint" />
          </mxGeometry>
        </mxCell>
        <mxCell id="-HOwmCufBXUvdhxubA4n-60" value="&lt;b&gt;Typemap[&lt;font face=&quot;Courier New&quot;&gt;Pair&lt;/font&gt;] =&amp;nbsp;{ &lt;font face=&quot;Courier New&quot;&gt;int&lt;/font&gt;: &lt;font color=&quot;#ff3333&quot;&gt;0&lt;/font&gt;, &lt;font face=&quot;Courier New&quot;&gt;char&lt;/font&gt;: &lt;font color=&quot;#ff3333&quot;&gt;4&lt;/font&gt; }&lt;/b&gt;" style="text;html=1;strokeColor=none;fillColor=none;align=center;verticalAlign=middle;whiteSpace=wrap;rounded=0;" vertex="1" parent="NAqijjQ5elvdxjjpEKF7-1">
          <mxGeometry x="410" y="585" width="220" height="15" as="geometry" />
        </mxCell>
        <mxCell id="-HOwmCufBXUvdhxubA4n-62" value="" style="endArrow=blockThin;html=1;strokeColor=#000000;strokeWidth=1;endFill=0;entryX=0;entryY=0.5;entryDx=0;entryDy=0;" edge="1" parent="NAqijjQ5elvdxjjpEKF7-1" target="-HOwmCufBXUvdhxubA4n-50">
          <mxGeometry width="50" height="50" relative="1" as="geometry">
            <mxPoint x="560" y="600" as="sourcePoint" />
            <mxPoint x="410" y="630" as="targetPoint" />
            <Array as="points">
              <mxPoint x="470" y="610" />
            </Array>
          </mxGeometry>
        </mxCell>
        <mxCell id="-HOwmCufBXUvdhxubA4n-63" value="" style="endArrow=blockThin;html=1;strokeColor=#000000;strokeWidth=1;endFill=0;entryX=0;entryY=0.5;entryDx=0;entryDy=0;" edge="1" parent="NAqijjQ5elvdxjjpEKF7-1" target="-HOwmCufBXUvdhxubA4n-51">
          <mxGeometry width="50" height="50" relative="1" as="geometry">
            <mxPoint x="610" y="600" as="sourcePoint" />
            <mxPoint x="570" y="630" as="targetPoint" />
            <Array as="points">
              <mxPoint x="580" y="610" />
            </Array>
          </mxGeometry>
        </mxCell>
        <mxCell id="-HOwmCufBXUvdhxubA4n-55" value="" style="endArrow=none;html=1;strokeWidth=2;" edge="1" parent="NAqijjQ5elvdxjjpEKF7-1">
          <mxGeometry width="50" height="50" relative="1" as="geometry">
            <mxPoint x="399.9999999999999" y="633" as="sourcePoint" />
            <mxPoint x="790" y="633.5" as="targetPoint" />
          </mxGeometry>
        </mxCell>
        <mxCell id="-HOwmCufBXUvdhxubA4n-69" value="" style="endArrow=none;html=1;strokeColor=#000000;strokeWidth=2;endFill=0;startArrow=diamond;startFill=1;exitX=0;exitY=0.25;exitDx=0;exitDy=0;" edge="1" parent="NAqijjQ5elvdxjjpEKF7-1" source="Xs97He_0VqaD7Sggwqv4-42">
          <mxGeometry width="50" height="50" relative="1" as="geometry">
            <mxPoint x="477.5" y="855" as="sourcePoint" />
            <mxPoint x="477.5" y="825" as="targetPoint" />
          </mxGeometry>
        </mxCell>
        <mxCell id="-HOwmCufBXUvdhxubA4n-74" value="&lt;font face=&quot;Courier New&quot;&gt;&lt;b&gt;outbuf&lt;/b&gt;&lt;/font&gt;" style="text;html=1;strokeColor=none;fillColor=none;align=center;verticalAlign=middle;whiteSpace=wrap;rounded=0;" vertex="1" parent="NAqijjQ5elvdxjjpEKF7-1">
          <mxGeometry x="67.5" y="805" width="45" height="20" as="geometry" />
        </mxCell>
        <mxCell id="-HOwmCufBXUvdhxubA4n-75" value="&lt;font face=&quot;Courier New&quot;&gt;&lt;b&gt;*position&lt;/b&gt;&lt;/font&gt;" style="text;html=1;strokeColor=none;fillColor=none;align=center;verticalAlign=middle;whiteSpace=wrap;rounded=0;" vertex="1" parent="NAqijjQ5elvdxjjpEKF7-1">
          <mxGeometry x="137.5" y="855" width="70" height="20" as="geometry" />
        </mxCell>
        <mxCell id="-HOwmCufBXUvdhxubA4n-77" value="" style="endArrow=diamond;html=1;strokeColor=#000000;strokeWidth=2;endFill=1;exitX=0;exitY=1;exitDx=0;exitDy=0;entryX=0;entryY=0.75;entryDx=0;entryDy=0;" edge="1" source="-HOwmCufBXUvdhxubA4n-80" target="-HOwmCufBXUvdhxubA4n-74" parent="NAqijjQ5elvdxjjpEKF7-1">
          <mxGeometry width="50" height="50" relative="1" as="geometry">
            <mxPoint x="67.5" y="800" as="sourcePoint" />
            <mxPoint x="67.5" y="830" as="targetPoint" />
          </mxGeometry>
        </mxCell>
        <mxCell id="-HOwmCufBXUvdhxubA4n-79" value="" style="verticalLabelPosition=bottom;verticalAlign=top;html=1;shape=mxgraph.basic.diag_round_rect;dx=6;shadow=0;fillColor=#f8cecc;opacity=50;fontFamily=Helvetica;strokeColor=none;" vertex="1" parent="NAqijjQ5elvdxjjpEKF7-1">
          <mxGeometry x="67.5" y="825" width="70" height="30" as="geometry" />
        </mxCell>
        <mxCell id="-HOwmCufBXUvdhxubA4n-83" value="" style="endArrow=none;html=1;strokeColor=#000000;strokeWidth=2;endFill=0;startArrow=diamond;startFill=1;exitX=0;exitY=0.25;exitDx=0;exitDy=0;" edge="1" source="-HOwmCufBXUvdhxubA4n-75" parent="NAqijjQ5elvdxjjpEKF7-1">
          <mxGeometry width="50" height="50" relative="1" as="geometry">
            <mxPoint x="137.5" y="855" as="sourcePoint" />
            <mxPoint x="137.5" y="825" as="targetPoint" />
          </mxGeometry>
        </mxCell>
        <mxCell id="-HOwmCufBXUvdhxubA4n-80" value="" style="rounded=0;whiteSpace=wrap;html=1;strokeWidth=2;fillColor=none;" vertex="1" parent="NAqijjQ5elvdxjjpEKF7-1">
          <mxGeometry x="67.5" y="825" width="240" height="30" as="geometry" />
        </mxCell>
        <mxCell id="-HOwmCufBXUvdhxubA4n-84" value="&lt;font face=&quot;Courier New&quot;&gt;&lt;b&gt;MPI_Pack&lt;/b&gt;&lt;/font&gt;" style="text;html=1;strokeColor=none;fillColor=none;align=center;verticalAlign=middle;whiteSpace=wrap;rounded=0;" vertex="1" parent="NAqijjQ5elvdxjjpEKF7-1">
          <mxGeometry x="315" y="820" width="70" height="20" as="geometry" />
        </mxCell>
        <mxCell id="Xs97He_0VqaD7Sggwqv4-24" value="" style="rounded=0;whiteSpace=wrap;html=1;strokeWidth=2;fillColor=none;" parent="NAqijjQ5elvdxjjpEKF7-1" vertex="1">
          <mxGeometry x="407.5" y="825" width="240" height="30" as="geometry" />
        </mxCell>
        <mxCell id="-HOwmCufBXUvdhxubA4n-85" value="" style="endArrow=none;html=1;strokeColor=#000000;strokeWidth=1;exitX=1;exitY=0;exitDx=0;exitDy=0;exitPerimeter=0;" edge="1" parent="NAqijjQ5elvdxjjpEKF7-1" source="Xs97He_0VqaD7Sggwqv4-31">
          <mxGeometry width="50" height="50" relative="1" as="geometry">
            <mxPoint x="330" y="860" as="sourcePoint" />
            <mxPoint x="390" y="840" as="targetPoint" />
            <Array as="points">
              <mxPoint x="370" y="840" />
            </Array>
          </mxGeometry>
        </mxCell>
      </root>
    </mxGraphModel>
  </diagram>
</mxfile>
